<?xml version="1.0" encoding="iso-8859-1"?>
<!-- Uploaded to: SVG Repo, www.svgrepo.com, Generator: SVG Repo Mixer Tools -->
<svg height="800px" width="800px" version="1.1" id="Capa_1" xmlns="http://www.w3.org/2000/svg" xmlns:xlink="http://www.w3.org/1999/xlink" 
	 viewBox="0 0 463.134 463.134" xml:space="preserve">
<g>
	<g>
		<path style="fill:#010002;" d="M226.512,463.134c114.141,0,207.002-92.861,207.002-207.002c0-32.555-7.576-63.354-21.02-90.788
			l-27.873-8.421l-3.43-1.04l-3.219,10.665l-0.618,2.057l-3.308,10.949l-4.072,13.485l-4.902,16.208h20.955
			c4.381,14.892,6.836,30.596,6.836,46.886s-2.455,31.994-6.836,46.886h-69.564c0.569-5.918,1.032-11.884,1.39-17.891
			c-1.292-0.065-2.593-0.187-3.853-0.569c-4.918-1.488-8.844-5.21-10.592-10.039l-5.771-15.981l-0.398-1.114
			c-1.187-3.292-1.284-6.877-0.268-10.226l7.673-25.386l3.796-12.567l5.788-19.151l1.91-6.332l3.829-12.672l0.748-2.487h-10.088
			c-2.512-12.924-5.592-25.288-9.258-36.831l-14.136-4.268c-4.129-1.244-7.592-4.081-9.624-7.885
			c-2.04-3.804-2.479-8.251-1.236-12.38c0.894-2.967,2.008-5.828,3.195-8.641c1.179-2.796,2.536-5.487,3.991-8.12
			c1.91-3.471,3.999-6.82,6.34-9.974c4.389-5.901,9.462-11.242,15.168-15.851c-24.239-9.982-50.763-15.526-78.563-15.526
			C112.37,49.121,19.501,141.982,19.501,256.131C19.501,370.273,112.37,463.134,226.512,463.134z M60.144,256.131
			c0-16.29,2.455-31.994,6.836-46.886h69.564c-1.488,15.404-2.235,31.157-2.235,46.886s0.756,31.474,2.235,46.886H66.98
			C62.599,288.125,60.144,272.413,60.144,256.131z M163.133,102.371c-9.015,18.777-15.94,41.48-20.752,66.223H85.294
			C103.616,139.153,130.757,115.767,163.133,102.371z M142.389,343.652c4.804,24.743,11.738,47.447,20.744,66.223
			c-32.376-13.396-59.517-36.774-77.839-66.223H142.389z M226.512,421.556c-11.892,0-31.409-27.036-42.708-77.904h85.407
			C257.912,394.529,238.396,421.556,226.512,421.556z M367.721,343.652c-18.322,29.45-45.455,52.828-77.839,66.223
			c9.015-18.777,15.94-41.48,20.744-66.223H367.721z M278.063,256.131c0,16.899-0.927,32.441-2.422,46.886h-98.266
			c-1.496-14.436-2.422-29.978-2.422-46.886s0.927-32.449,2.422-46.886h98.258C277.136,223.682,278.063,239.224,278.063,256.131z
			 M183.804,168.603c11.299-50.869,30.815-77.896,42.708-77.896c11.892,0,31.401,27.036,42.699,77.896H183.804z"/>
		<path style="fill:#010002;" d="M365.331,0c-12.632,0-21.663,3.13-23.483,9.153l17.672,5.34l-14.68,48.601
			c-8.129,1.78-15.794,5.08-22.784,9.486c-6.194,3.91-11.843,8.673-16.615,14.371c-4.357,5.202-7.934,11.136-10.705,17.615
			c-0.642,1.504-1.203,3.056-1.748,4.617c-0.325,0.935-0.756,1.805-1.049,2.756l2.528,0.764l29.556,8.933l44.553,13.461
			l32.352,9.779l27.019,8.161c7.722-25.548,0.325-52.047-16.997-69.963l14.68-48.601l17.672,5.34
			c3.186-10.543-16.948-25.946-44.967-34.408C386.328,1.764,374.809,0,365.331,0z"/>
		<polygon style="fill:#010002;" points="343.23,150.281 337.694,168.603 335.524,175.789 331.695,188.461 325.412,209.246 
			320.194,226.511 318.153,233.274 312.528,251.896 312.927,253.01 318.527,268.519 318.698,268.991 329.956,260.659 
			333.305,258.18 334.866,253.01 345.213,218.748 348.091,209.246 354.407,188.331 360.365,168.603 362.405,161.848 
			362.698,160.881 366.461,148.436 348.018,142.868 345.685,142.161 		"/>
	</g>
</g>
</svg>